<?xml version="1.0" encoding="UTF-8"?>
<svg id="_레이어_2" data-name="레이어 2" xmlns="http://www.w3.org/2000/svg" viewBox="0 0 1266.94 723.72">
  <defs>
    <style>
      .cls-1 {
        fill: aqua;
      }
    </style>
  </defs>
  <g id="_레이어_1-2" data-name="레이어 1">
    <path class="cls-1" d="M523.68,98.18c5.53,0,8.3,2.37,8.3,7.11,0,2.18-.79,4.55-2.37,7.12l-16.31,28.46c-2.17,3.96-5.48,7.31-9.93,10.08-4.44,2.77-8.65,4.15-12.6,4.15h-71.16c-5.34,0-8-2.37-8-7.11,0-2.17,.69-4.54,2.08-7.12l8.3-14.23c1.38-2.57,2.08-4.94,2.08-7.12,0-4.74-2.77-7.11-8.3-7.11-3.76,0-7.87,1.38-12.31,4.15-4.45,2.76-7.77,6.12-9.94,10.07l-66.01,113.74c-2.17,3.99-5.48,7.38-9.91,10.17-4.44,2.79-8.63,4.18-12.57,4.18h-71.01c-5.33,0-7.99-2.37-7.99-7.11,0-2.18,.7-4.55,2.08-7.12l73.82-128.08c2.37-3.95,5.73-7.31,10.08-10.08,4.35-2.77,8.5-4.15,12.45-4.15h199.23Z"/>
    <path class="cls-1" d="M769.16,98.19c5.34,0,8.01,2.37,8.01,7.11,0,2.18-.7,4.55-2.07,7.12l-74.12,128.08c-2.18,3.96-5.49,7.31-9.93,10.08-4.45,2.77-8.55,4.15-12.3,4.15h-199.23c-5.54,0-8.3-2.37-8.3-7.11,0-2.17,.7-4.55,2.08-7.12l32.91-56.92c2.37-3.95,5.73-7.31,10.08-10.08,4.35-2.77,8.5-4.15,12.45-4.15h99.61c3.98,0,8.14-1.38,12.52-4.13,4.37-2.76,7.74-6.11,10.13-10.05l16.39-28.39c1.25-2.59,1.87-4.98,1.87-7.17,0-4.78-2.67-7.17-8.01-7.17-3.92,0-8.03,1.39-12.33,4.19-4.31,2.79-7.63,6.18-9.98,10.17l-8.26,14.25c-2.18,3.92-5.51,7.24-9.96,9.98-4.46,2.74-8.57,4.1-12.33,4.1h-71.33c-5.55,0-8.32-2.37-8.32-7.11,0-2.17,.69-4.54,2.08-7.12l16.6-28.46c2.17-3.95,5.49-7.31,9.93-10.08,4.45-2.77,8.65-4.15,12.6-4.15h199.23Zm-142.96,99.58c1.42-2.56,2.13-4.93,2.13-7.1,0-4.73-2.77-7.1-8.3-7.1-3.96,0-8.11,1.39-12.45,4.15-4.35,2.77-7.61,6.13-9.78,10.08l-16.6,28.46c-1.38,2.57-2.08,4.94-2.08,7.12,0,4.74,2.67,7.11,8.01,7.11,3.96,0,8.16-1.38,12.61-4.15,4.45-2.76,7.77-6.12,9.94-10.07l16.53-28.51Z"/>
    <path class="cls-1" d="M532.95,42.69l-16.6-28.46c-2.17-3.95-5.49-7.31-9.93-10.08-4.45-2.77-8.65-4.15-12.6-4.15H254.89c-.35,0-.7,.02-1.04,.05-.34-.02-.68-.05-1.01-.05h-121.33c-5.55,0-8.32,2.37-8.32,7.11,0,2.17,.69,4.54,2.08,7.12l16.6,28.46c2.17,3.95,5.49,7.31,9.93,10.08,4.45,2.77,8.65,4.15,12.6,4.15h44.24l-6.24,11.22L4.45,423.51c-2.96,4.94-4.45,10.27-4.45,16.01,0,2.96,.59,5.43,1.78,7.41l39.13,66.71c1.19,1.97,2.67,2.96,4.45,2.96,3.36,0,6.52-2.57,9.49-7.71L295.4,79.59l19.19-34.29,8.16-14.58c5.7-10.18,16.45-16.48,28.11-16.48h31.64c3.92,0,8.03,1.39,12.33,4.19,4.31,2.79,7.63,6.18,9.98,10.17l8.26,14.25c2.18,3.92,5.51,7.24,9.96,9.98,4.46,2.74,8.57,4.1,12.33,4.1h91.33c5.55,0,8.32-2.37,8.32-7.11,0-2.17-.69-4.54-2.08-7.12Z"/>
    <path class="cls-1" d="M1015.23,98.18c5.53,0,8.3,2.37,8.3,7.11,0,2.18-.69,4.55-2.07,7.12l-74.12,128.08c-2.18,3.96-5.48,7.32-9.93,10.08-4.45,2.77-8.55,4.15-12.3,4.15h-71.16c-5.54,0-8.3-2.37-8.3-7.11,0-2.18,.69-4.55,2.08-7.12l65.82-113.85c1.38-2.57,2.08-4.94,2.08-7.12,0-4.74-2.67-7.11-7.99-7.11-3.95,0-8.15,1.38-12.59,4.15-4.45,2.77-7.76,6.14-9.93,10.09l-65.81,113.85c-2.18,3.95-5.49,7.3-9.94,10.07-4.45,2.77-8.55,4.15-12.31,4.15h-71.18c-5.53,0-8.3-2.37-8.3-7.11,0-2.18,.69-4.55,2.08-7.12l74.12-128.08c2.17-3.95,5.48-7.31,9.93-10.08,4.45-2.77,8.55-4.15,12.31-4.15h199.23Z"/>
    <path class="cls-1" d="M1154.57,155.11c-5.34,0-8-2.37-8-7.11,0-2.17,.69-4.54,2.08-7.12l8.3-14.23c1.38-2.57,2.08-4.94,2.08-7.12,0-4.74-2.77-7.11-8.3-7.11-3.76,0-7.87,1.38-12.31,4.15-4.45,2.76-7.77,6.12-9.94,10.07l-16.6,28.46c-1.37,2.57-2.05,4.95-2.05,7.12,0,4.75,2.76,7.12,8.3,7.12h99.62c5.34,0,8,2.37,8,7.12,0,2.17-.7,4.55-2.07,7.11l-32.91,56.92c-2.17,3.96-5.48,7.32-9.93,10.08-4.45,2.77-8.65,4.15-12.6,4.15h-199.23c-5.34,0-8.01-2.37-8.01-7.11,0-2.18,.69-4.55,2.07-7.12l16.31-28.46c2.37-3.95,5.73-7.31,10.08-10.08,4.35-2.76,8.5-4.15,12.45-4.15h71.15c5.53,0,8.3,2.37,8.3,7.12,0,2.18-.79,4.55-2.37,7.11l-8.01,14.23c-1.58,2.57-2.37,4.94-2.37,7.12,0,4.74,2.75,7.11,8.26,7.11,3.93,0,8.06-1.39,12.39-4.18,4.32-2.78,7.66-6.16,10.02-10.15l16.34-28.44c1.67-2.55,2.51-4.91,2.51-7.08,0-4.71-2.77-7.07-8.3-7.07h-99.62c-5.54,0-8.3-2.37-8.3-7.11,0-2.17,.78-4.54,2.37-7.12l32.61-56.92c2.37-3.95,5.73-7.31,10.08-10.08,4.35-2.77,8.5-4.15,12.45-4.15h199.23c5.53,0,8.3,2.37,8.3,7.11,0,2.18-.79,4.55-2.37,7.12l-16.31,28.46c-2.18,3.96-5.48,7.31-9.93,10.08-4.45,2.77-8.65,4.15-12.6,4.15h-71.16Z"/>
    <path class="cls-1" d="M317.13,463.42c5.53,0,8.3,2.37,8.3,7.11,0,2.18-.79,4.55-2.37,7.12l-73.82,128.08c-2.37,3.96-5.73,7.32-10.08,10.08-4.35,2.77-8.5,4.15-12.45,4.15h-71.16c-5.54,0-8.3-2.37-8.3-7.11,0-2.18,.79-4.55,2.37-7.12l65.52-113.85c1.58-2.57,2.37-4.94,2.37-7.12,0-4.74-2.77-7.11-8.3-7.11-3.95,0-8.09,1.39-12.43,4.16-4.34,2.77-7.7,6.14-10.06,10.1l-65.53,113.85c-2.37,3.95-5.74,7.31-10.09,10.07-4.36,2.76-8.51,4.14-12.46,4.14l-33.08-59.89c-5.54,0-2.86-13.26-2.86-18,0-2.18,.79-4.55,2.37-7.12l133.8-233.88c2.96-5.14,6.12-7.71,9.49-7.71,1.78,0,3.16,.89,4.15,2.67l39.43,67.01c1.19,1.98,1.78,4.64,1.78,8.01,0,4.94-40.97,75.78-43.35,79.93-1.18,1.98-1.78,3.86-1.78,5.63,0,4.55,2.96,6.82,8.89,6.82h99.62Z"/>
    <path class="cls-1" d="M390.87,654.05c-1.19-1.98-1.78-4.65-1.78-8.01,0-4.94,1.19-9.49,3.56-13.64,.99-1.98,1.48-3.86,1.48-5.63,0-4.55-2.87-6.82-8.6-6.82h-99.61c-5.54,0-8.3-2.37-8.3-7.11,0-2.17,.79-4.55,2.37-7.12l73.82-128.08c2.37-3.95,5.73-7.31,10.08-10.08,4.35-2.77,8.5-4.15,12.45-4.15h71.15c5.34,0,8.01,2.37,8.01,7.11,0,2.18-.7,4.55-2.08,7.12l-65.82,113.85c-1.38,2.57-2.08,4.94-2.08,7.12,0,4.74,2.77,7.11,8.3,7.11,3.75,0,7.84-1.38,12.29-4.15,4.44-2.77,7.75-6.14,9.92-10.09l65.82-113.85c2.37-3.95,5.73-7.3,10.08-10.07,4.35-2.76,8.5-4.15,12.45-4.15h71.18c5.34,0,8,2.37,8,7.11,0,2.18-.69,4.55-2.08,7.12l-137.56,238.37c-2.97,5.14-6.13,7.71-9.49,7.71-1.78,0-3.16-.89-4.15-2.67l-39.43-67Z"/>
    <path class="cls-1" d="M824.99,463.42c5.53,0,8.3,2.37,8.3,7.11,0,2.18-.7,4.55-2.08,7.12l-74.12,128.08c-2.18,3.96-5.48,7.31-9.93,10.08-4.45,2.77-8.65,4.15-12.6,4.15h-99.61c-3.75,0-7.85,1.38-12.28,4.15-4.44,2.77-7.75,6.14-9.92,10.1l-47.18,81.81c-2.96,5.14-6.13,7.71-9.49,7.71-1.78,0-3.26-.99-4.45-2.96l-39.13-66.71c-1.38-2.18-2.08-4.94-2.08-8.3,0-4.94,1.19-9.39,3.56-13.34l89.53-154.76c2.18-3.95,5.44-7.31,9.79-10.08,4.34-2.77,8.49-4.15,12.45-4.15h199.23Zm-101.74,28.44c1.41-2.57,2.12-4.93,2.12-7.11,0-4.74-2.67-7.1-8.01-7.1-3.96,0-8.16,1.38-12.61,4.15-4.44,2.77-7.76,6.13-9.93,10.08l-57.47,99.64c-1.61,2.57-2.42,4.93-2.42,7.1,0,4.73,2.76,7.1,8.3,7.1,3.96,0,8.11-1.38,12.46-4.15,4.35-2.77,7.71-6.12,10.09-10.08l57.46-99.64Z"/>
    <path class="cls-1" d="M917.57,552.94c-4.35,2.75-7.72,6.1-10.09,10.04l-16.33,28.35c-1.4,2.6-2.09,5-2.09,7.2,0,4.8,2.77,7.2,8.3,7.2,3.95,0,8.1-1.38,12.45-4.15,4.35-2.77,7.71-6.12,10.08-10.08l8.3-14.23c2.17-3.95,5.43-7.31,9.78-10.08,4.35-2.76,8.5-4.15,12.45-4.15h71.15c5.53,0,8.3,2.37,8.3,7.12,0,2.18-.7,4.55-2.08,7.11l-16.6,28.46c-2.17,3.96-5.48,7.31-9.93,10.08-4.45,2.77-8.65,4.15-12.6,4.15h-199.24c-5.34,0-8-2.37-8-7.11,0-2.17,.7-4.55,2.08-7.12l74.12-128.08c2.17-3.95,5.43-7.31,9.78-10.08,4.35-2.77,8.5-4.15,12.45-4.15h199.23c5.53,0,8.3,2.37,8.3,7.11,0,2.18-.7,4.55-2.08,7.12l-32.95,56.92c-2.38,3.96-5.74,7.32-10.1,10.08-4.36,2.77-8.51,4.15-12.47,4.15h-99.76c-3.96,0-8.11,1.38-12.47,4.14m14.67-32.65c-1.32,2.58-1.98,4.96-1.98,7.14,0,4.76,2.77,7.14,8.3,7.14,3.75,0,7.85-1.38,12.3-4.15,4.45-2.77,7.76-6.12,9.93-10.08l16.6-28.46c1.38-2.57,2.07-4.94,2.07-7.12,0-4.74-2.68-7.11-8.03-7.11-3.96,0-8.18,1.38-12.64,4.13-4.46,2.76-7.78,6.1-9.96,10.04l-16.6,28.46Z"/>
  </g>
</svg>