<svg xmlns="http://www.w3.org/2000/svg" viewBox="0 0 1532.72 1242.8"><defs><style>.cls-1{fill:aqua;}</style></defs><title>자산 1</title><g id="레이어_2" data-name="레이어 2"><g id="레이어_1-2" data-name="레이어 1"><polygon class="cls-1" points="230.94 600.08 327.84 600.08 376.3 684.01 327.84 767.93 230.94 767.93 182.48 684.01 230.94 600.08"/><polygon class="cls-1" points="258.84 242.57 355.75 242.57 404.21 326.5 355.75 410.42 258.84 410.42 210.39 326.5 258.84 242.57"/><polygon class="cls-1" points="403.97 399.83 550.11 399.83 623.18 526.39 550.11 652.95 403.97 652.95 330.9 526.39 403.97 399.83"/><polygon class="cls-1" points="828.18 23.26 974.32 23.26 1047.39 149.82 974.32 276.38 828.18 276.38 755.11 149.82 828.18 23.26"/><polygon class="cls-1" points="87.39 340.28 184.29 340.28 232.75 424.2 184.29 508.13 87.39 508.13 38.93 424.2 87.39 340.28"/><polygon class="cls-1" points="62.37 93.78 187.1 93.78 249.47 201.8 187.1 309.82 62.37 309.82 0 201.8 62.37 93.78"/><polygon class="cls-1" points="621.4 618.11 682.04 618.11 712.36 670.62 682.04 723.14 621.4 723.14 591.08 670.62 621.4 618.11"/><polygon class="cls-1" points="1152.36 409.59 1240.49 409.59 1284.55 485.91 1240.49 562.23 1152.36 562.23 1108.3 485.91 1152.36 409.59"/><polygon class="cls-1" points="1163.09 99 1266.46 99 1318.15 188.52 1266.46 278.05 1163.09 278.05 1111.4 188.52 1163.09 99"/><polygon class="cls-1" points="120.95 531.65 175.96 531.65 203.46 579.29 175.96 626.92 120.95 626.92 93.45 579.29 120.95 531.65"/><polygon class="cls-1" points="99.25 708.18 171.27 708.18 207.28 770.55 171.27 832.92 99.25 832.92 63.23 770.55 99.25 708.18"/><polygon class="cls-1" points="296.46 881.48 368.48 881.48 404.49 943.85 368.48 1006.22 296.46 1006.22 260.45 943.85 296.46 881.48"/><polygon class="cls-1" points="241.18 484.4 289.96 484.4 314.35 526.64 289.96 568.89 241.18 568.89 216.79 526.64 241.18 484.4"/><polygon class="cls-1" points="623.79 2.32 702.19 2.32 741.39 70.21 702.19 138.1 623.79 138.1 584.6 70.21 623.79 2.32"/><polygon class="cls-1" points="1240.2 750.36 1143.3 750.36 1094.84 666.43 1143.3 582.5 1240.2 582.5 1288.66 666.43 1240.2 750.36"/><polygon class="cls-1" points="1230.78 1091.69 1133.87 1091.69 1085.42 1007.77 1133.87 923.84 1230.78 923.84 1279.23 1007.77 1230.78 1091.69"/><polygon class="cls-1" points="1404.55 989.37 1307.64 989.37 1259.18 905.44 1307.64 821.51 1404.55 821.51 1453 905.44 1404.55 989.37"/><polygon class="cls-1" points="1436.5 1242.8 1311.77 1242.8 1249.4 1134.77 1311.77 1026.75 1436.5 1026.75 1498.87 1134.77 1436.5 1242.8"/><polygon class="cls-1" points="325.42 1241.16 200.69 1241.16 138.32 1133.14 200.69 1025.12 325.42 1025.12 387.79 1133.14 325.42 1241.16"/><polygon class="cls-1" points="1355.46 795.68 1298.48 795.68 1269.99 746.33 1298.48 696.98 1355.46 696.98 1383.95 746.33 1355.46 795.68"/><polygon class="cls-1" points="1369.58 633.02 1297.56 633.02 1261.55 570.65 1297.56 508.27 1369.58 508.27 1405.59 570.65 1369.58 633.02"/><polygon class="cls-1" points="1254.29 852.54 1204.3 852.54 1179.3 809.25 1204.3 765.95 1254.29 765.95 1279.29 809.25 1254.29 852.54"/><polygon class="cls-1" points="201.7 813 258.38 813 286.72 862.09 258.38 911.17 201.7 911.17 173.36 862.09 201.7 813"/><polygon class="cls-1" points="902.87 299.88 974.89 299.88 1010.9 362.25 974.89 424.63 902.87 424.63 866.86 362.25 902.87 299.88"/><polygon class="cls-1" points="72.99 1030.11 127.77 1030.11 155.16 1077.55 127.77 1124.98 72.99 1124.98 45.6 1077.55 72.99 1030.11"/><polygon class="cls-1" points="1330.62 0 1427.53 0 1475.98 83.92 1427.53 167.85 1330.62 167.85 1282.16 83.92 1330.62 0"/><polygon class="cls-1" points="1466.85 133.33 1510.76 133.33 1532.72 171.36 1510.76 209.38 1466.85 209.38 1444.9 171.36 1466.85 133.33"/><polygon class="cls-1" points="1386.87 290.03 1421.96 290.03 1439.51 320.42 1421.96 350.81 1386.87 350.81 1369.32 320.42 1386.87 290.03"/><polygon class="cls-1" points="687.91 163.34 737.63 163.34 762.49 206.4 737.63 249.46 687.91 249.46 663.05 206.4 687.91 163.34"/><polygon class="cls-1" points="1377.02 181.5 1431.8 181.5 1459.19 228.94 1431.8 276.38 1377.02 276.38 1349.64 228.94 1377.02 181.5"/></g></g></svg>